<svg xmlns="http://www.w3.org/2000/svg" xmlns:xlink="http://www.w3.org/1999/xlink" version="1.1" x="0px" y="0px" viewBox="0 0 500 625" enable-background="new 0 0 500 500" xml:space="preserve"><g><g><g><circle fill="none" stroke="#000000" stroke-width="10" stroke-miterlimit="10" cx="251.346" cy="226.799" r="61.061"/><circle fill="none" stroke="#000000" stroke-width="10" stroke-miterlimit="10" cx="251.346" cy="66.454" r="33.5"/></g></g><circle fill="none" stroke="#000000" stroke-width="10" stroke-miterlimit="10" cx="390.354" cy="242.939" r="49.431"/><g><g><g><path fill="none" stroke="#000000" stroke-width="10" stroke-miterlimit="10" d="M480,355.415v84.95H362.092v-74.838      c0-16.537-14.018-31.387-36.336-41.69c16.306-8.617,39.215-13.976,64.592-13.976C439.869,309.861,480,330.247,480,355.415z"/><path fill="none" stroke="#000000" stroke-width="10" stroke-miterlimit="10" d="M175.51,324.518      c-21.483,10.261-34.911,24.828-34.911,41.009v74.838H20v-84.95c0-25.168,40.132-45.554,89.653-45.554      C135.692,309.861,159.13,315.501,175.51,324.518z"/><path fill="none" stroke="#000000" stroke-width="10" stroke-miterlimit="10" d="M362.092,365.527v104.936H140.599V365.527      c0-16.181,13.428-30.749,34.911-41.009c19.818-9.475,46.493-15.264,75.836-15.264c28.646,0,54.751,5.522,74.41,14.583      C348.074,334.14,362.092,348.99,362.092,365.527z"/></g><circle fill="none" stroke="#000000" stroke-width="10" stroke-miterlimit="10" cx="109.653" cy="242.939" r="49.431"/><circle fill="none" stroke="#000000" stroke-width="10" stroke-miterlimit="10" cx="166.967" cy="129.741" r="38.646"/><circle fill="none" stroke="#000000" stroke-width="10" stroke-miterlimit="10" cx="335.725" cy="129.741" r="38.646"/></g></g></g><text x="0" y="515" fill="#000000" font-size="5px" font-weight="bold" font-family="'Helvetica Neue', Helvetica, Arial-Unicode, Arial, Sans-serif">Created by Jordan Halliday</text><text x="0" y="520" fill="#000000" font-size="5px" font-weight="bold" font-family="'Helvetica Neue', Helvetica, Arial-Unicode, Arial, Sans-serif">from the Noun Project</text></svg>